<svg viewBox="0 0 512 512" aria-hidden="true" focusable="false" role="img" xmlns="http://www.w3.org/2000/svg">
    <rect width="512" height="512" fill="transparent"/>
    <path d="M422.75 256H408.25C406.327 256 404.483 256.764 403.123 258.123C401.764 259.483 401 261.327 401 263.25V444.5C401 448.346 399.472 452.034 396.753 454.753C394.034 457.472 390.346 459 386.5 459H67.5C63.6544 459 59.9662 457.472 57.247 454.753C54.5277 452.034 53 448.346 53 444.5V125.5C53 121.654 54.5277 117.966 57.247 115.247C59.9662 112.528 63.6544 111 67.5 111H248.75C250.673 111 252.517 110.236 253.877 108.877C255.236 107.517 256 105.673 256 103.75V89.25C256 87.3272 255.236 85.4831 253.877 84.1235C252.517 82.7638 250.673 82 248.75 82H67.5C55.9631 82 44.8987 86.583 36.7409 94.7409C28.583 102.899 24 113.963 24 125.5L24 444.5C24 456.037 28.583 467.101 36.7409 475.259C44.8987 483.417 55.9631 488 67.5 488H386.5C398.037 488 409.101 483.417 417.259 475.259C425.417 467.101 430 456.037 430 444.5V263.25C430 261.327 429.236 259.483 427.877 258.123C426.517 256.764 424.673 256 422.75 256V256ZM459 24H458.946L371.801 24.1541C346.018 24.1541 333.14 55.4559 351.338 73.6534L383.31 105.626L143.154 345.782C142.14 346.793 141.335 347.993 140.787 349.315C140.238 350.637 139.955 352.054 139.955 353.485C139.955 354.917 140.238 356.334 140.787 357.656C141.335 358.978 142.14 360.178 143.154 361.188L150.848 368.882C151.858 369.896 153.059 370.701 154.381 371.25C155.702 371.799 157.12 372.081 158.551 372.081C159.982 372.081 161.399 371.799 162.721 371.25C164.043 370.701 165.244 369.896 166.254 368.882L406.41 128.726L438.383 160.69C456.508 178.815 487.837 166.127 487.882 140.236L488 53.0453C488.006 49.2332 487.26 45.4573 485.806 41.9336C484.351 38.4099 482.216 35.2076 479.522 32.5099C476.829 29.8122 473.63 27.672 470.108 26.2118C466.587 24.7516 462.812 24 459 24V24ZM458.846 140.154L371.846 53.1541L459 53L458.846 140.154Z" fill="currentColor"/>
</svg>