<svg aria-hidden="true" focusable="false" role="img" xmlns="http://www.w3.org/2000/svg" viewBox="0 0 512 512">
    <path d="M407.204 228.224L171.483 88.4127C152.331 77.0584 123 88.0767 123 116.16V395.716C123 420.91 150.255 436.094 171.483 423.463L407.204 283.719C428.232 271.29 428.299 240.653 407.204 228.224V228.224ZM396.356 265.243L160.635 404.987C153.537 409.086 144.429 404.181 144.429 395.716V116.16C144.429 105.209 155.412 103.798 160.568 106.888L396.289 246.7C403.32 250.865 403.32 261.078 396.356 265.243V265.243Z" fill="currentColor"/>
    <path d="M391.679 231.131L177.958 105.951C160.594 95.7849 134 105.65 134 130.794V381.094C134 403.652 158.711 417.247 177.958 405.938L391.679 280.818C410.743 269.69 410.804 242.259 391.679 231.131V231.131ZM381.843 264.276L168.122 389.396C161.686 393.065 153.429 388.674 153.429 381.094V130.794C153.429 120.989 163.387 119.726 168.062 122.493L381.782 247.673C388.157 251.403 388.157 260.546 381.843 264.276V264.276Z" fill="currentColor"/>
</svg>